<svg xmlns="http://www.w3.org/2000/svg" width="1024" height="1024"><g style="opacity:1"><path d="M688.125 678.659c3.198 0 50.44.352 50.44.352l-.493 39.6s-89.32 60.846-107.437-38.212c-2.339-73.457 71.846-85.157 104.021-50.821" style="color:#000;fill:#000;fill-opacity:.000836002;stroke-width:30;-inkscape-stroke:none" transform="matrix(1.66554 0 0 1.66554 -253.615 -534.783)"/><path d="M608.602 682.134c9.57 91.017 115.565 80.539 145.056 44.475l.094-62.486c-21.876-.113-46.455.19-68.331.143l.073 30.03 32.165-.057.013 17.9c-36.796 17.413-67.891 4.78-70.646-32.848 1.731-48.69 42.537-61.924 74.71-34.57 7.506-7.929 13.443-14.898 23.997-26.898-83.22-59.572-142.942 12.581-137.131 64.311z" style="color:#000;fill:#000;-inkscape-stroke:none" transform="matrix(1.66554 0 0 1.66554 -253.615 -534.783)"/></g><path d="m44.874 465.918-.018 245.045c109.825.189 208.503 10.397 210.342-67.794-4.05-49.143-27.155-47.567-41.08-59.13 8.254-9.469 23.6-7.712 27.236-37.524-4.899-90.924-94.95-80.21-196.48-80.597Zm136.012 77.239c.98 24.347-41.987 26.162-75.825 23.365l.205 45.956c49.564-6.022 84.583-4.257 84.836 21.4.356 36.091-36.52 28.09-84.679 28.866l.076-146.405c58.104-.856 74.757.779 75.387 26.818z" style="color:#000;display:inline;opacity:1;fill:#000;stroke-width:1.9927;-inkscape-stroke:none"/><path d="M108.454 590.31s107.429 7.002 106.01-38.741c-.293-9.44 10.28-72.748-4.754-75.299-13.586-2.305-132.85 16.375-132.85 16.375L75.667 685.83s154.144 6.91 150.703-42.361c-4.083-58.444-85.626-55.006-117.917-53.16z" style="color:#000;display:inline;opacity:1;fill:#000;fill-opacity:.000836002;stroke-width:59.781;-inkscape-stroke:none"/><g style="display:inline;opacity:1"><path d="m597.45 524.556-27.585 1.06-1.033 43.548 30.65.169s-29.681-21.85-28.57-21.85c1.112 0 25.788-.545 25.788-.545" style="color:#000;fill:#000;fill-opacity:.000836002;stroke-width:30;-inkscape-stroke:none" transform="translate(-531.057 -722.794) scale(1.9927)"/><path d="m601.54 518.907-39.198.527.34 57.394 41.173-.53-.341-12.873-25.689-.111.14-9.003 21.148-.196.186-13.02-21.342.136.067-9.49 23.525-.501z" style="color:#000;fill:#000;-inkscape-stroke:none" transform="translate(-531.057 -722.794) scale(1.9927)"/></g><g style="display:inline;opacity:1"><path d="m494.358 526.737.793 41.806s-1.655-21.069.442-21.611c2.096-.543 43.357-.432 43.357-.432s-2.218 20.049-2.218 19.52c0-.529.358-41.548.358-41.548l-1.314.076" style="color:#000;fill:#000;fill-opacity:.000836002;stroke-width:30;-inkscape-stroke:none" transform="translate(-531.057 -722.794) scale(1.9927)"/><path d="m541.765 518.6-16.574.04-.077 21.42c.033-.074-20.406-.24-20.406-.24l.147-20.041-15.163.02-.188 56.72 15.554-.152-.431-20.942 20.43-.497.672 21.452 15.931.022z" style="color:#000;fill:#000;-inkscape-stroke:none" transform="translate(-531.057 -722.794) scale(1.9927)"/></g><g style="display:inline;opacity:1"><path d="M426.883 525.785c1.008.141 37.466-.731 37.466-.731l-17.901.615 2.367 46.346" style="color:#000;fill:#000;fill-opacity:.000836002;stroke-width:30;-inkscape-stroke:none" transform="translate(-531.057 -722.794) scale(1.9927)"/><path d="M470.567 519.649c-19.314.399-33.497.195-47.14.254-.523 12.675.02.09-.426 12.456 16.22-.037 4.846.243 16.314.058l.553 43.848 14.973.016-.473-43.448 16.745-.006z" style="color:#000;fill:#000;-inkscape-stroke:none" transform="translate(-531.057 -722.794) scale(1.9927)"/></g><g style="display:inline;opacity:1"><path d="m420.98 785.35 1.633 96.646 56.38 3.65" style="color:#000;fill:#000;fill-opacity:.000836002;stroke-width:30;-inkscape-stroke:none" transform="translate(-502.957 -1082.32) scale(1.9927)"/><path d="m433.092 775.936-32.118.06.006 124.071 84.008-.087.034-27.987-52.043-.01z" style="color:#000;fill:#000;-inkscape-stroke:none" transform="translate(-502.957 -1082.32) scale(1.9927)"/></g><g style="display:inline;opacity:1"><path d="M571.29 675.429a59.346 53.697 0 0 1-59.346 53.697 59.346 53.697 0 0 1-59.346-53.697 59.346 53.697 0 0 1 59.346-53.697 59.346 53.697 0 0 1 59.346 53.697z" style="color:#000;fill:#000;fill-opacity:.000836002;stroke-width:30;-inkscape-stroke:none" transform="matrix(1.62948 0 0 1.62948 -224.331 -512.499)"/><path d="M511.163 596.12c-40.104.707-81.73 33.158-80.628 79.589.962 40.546 32.035 78.567 81.926 78.645 45.718.072 81.119-30.438 82.053-78.632.94-48.44-39.01-80.383-83.35-79.602zm1.678 34.823c25.441 0 43.448 23.79 43.448 44.487 0 20.696-18.63 43.92-44.07 43.92-25.442 0-42.556-23.224-42.556-43.92 0-20.697 17.737-44.487 43.178-44.487z" style="color:#000;fill:#000;-inkscape-stroke:none" transform="matrix(1.62948 0 0 1.62948 -224.331 -512.499)"/></g></svg>